<mxfile host="app.diagrams.net" agent="Mozilla/5.0 (Windows NT 10.0; Win64; x64) AppleWebKit/537.36 (KHTML, like Gecko) Chrome/134.0.0.0 Safari/537.36" version="26.2.5" pages="2">
  <diagram id="C5RBs43oDa-KdzZeNtuy" name="Sudoku diagram">
    <mxGraphModel dx="1165" dy="1800" grid="1" gridSize="10" guides="1" tooltips="1" connect="1" arrows="1" fold="1" page="1" pageScale="1" pageWidth="827" pageHeight="1169" math="0" shadow="0">
      <root>
        <mxCell id="WIyWlLk6GJQsqaUBKTNV-0" />
        <mxCell id="WIyWlLk6GJQsqaUBKTNV-1" parent="WIyWlLk6GJQsqaUBKTNV-0" />
        <mxCell id="WIyWlLk6GJQsqaUBKTNV-8" value="No" style="rounded=0;html=1;jettySize=auto;orthogonalLoop=1;fontSize=11;endArrow=block;endFill=0;endSize=8;strokeWidth=1;shadow=0;labelBackgroundColor=none;edgeStyle=orthogonalEdgeStyle;" parent="WIyWlLk6GJQsqaUBKTNV-1" edge="1">
          <mxGeometry x="0.3333" y="20" relative="1" as="geometry">
            <mxPoint as="offset" />
            <mxPoint x="220" y="440" as="targetPoint" />
          </mxGeometry>
        </mxCell>
        <mxCell id="WVFGbX8OKdMeRJ4kNkZL-5" value="" style="edgeStyle=orthogonalEdgeStyle;rounded=0;orthogonalLoop=1;jettySize=auto;html=1;" parent="WIyWlLk6GJQsqaUBKTNV-1" source="WVFGbX8OKdMeRJ4kNkZL-1" target="WVFGbX8OKdMeRJ4kNkZL-4" edge="1">
          <mxGeometry relative="1" as="geometry" />
        </mxCell>
        <mxCell id="WVFGbX8OKdMeRJ4kNkZL-1" value="start" style="ellipse;whiteSpace=wrap;html=1;" parent="WIyWlLk6GJQsqaUBKTNV-1" vertex="1">
          <mxGeometry x="170" y="-50" width="80" height="50" as="geometry" />
        </mxCell>
        <mxCell id="WVFGbX8OKdMeRJ4kNkZL-7" value="" style="edgeStyle=orthogonalEdgeStyle;rounded=0;orthogonalLoop=1;jettySize=auto;html=1;" parent="WIyWlLk6GJQsqaUBKTNV-1" source="WVFGbX8OKdMeRJ4kNkZL-4" target="WVFGbX8OKdMeRJ4kNkZL-6" edge="1">
          <mxGeometry relative="1" as="geometry" />
        </mxCell>
        <mxCell id="WVFGbX8OKdMeRJ4kNkZL-4" value="input sudoku board&lt;div&gt;(2D list of char)&lt;/div&gt;" style="shape=parallelogram;perimeter=parallelogramPerimeter;whiteSpace=wrap;html=1;fixedSize=1;" parent="WIyWlLk6GJQsqaUBKTNV-1" vertex="1">
          <mxGeometry x="130" y="20" width="160" height="60" as="geometry" />
        </mxCell>
        <mxCell id="WVFGbX8OKdMeRJ4kNkZL-39" value="" style="edgeStyle=none;rounded=0;orthogonalLoop=1;jettySize=auto;html=1;" parent="WIyWlLk6GJQsqaUBKTNV-1" source="WVFGbX8OKdMeRJ4kNkZL-6" target="WVFGbX8OKdMeRJ4kNkZL-37" edge="1">
          <mxGeometry relative="1" as="geometry" />
        </mxCell>
        <mxCell id="WVFGbX8OKdMeRJ4kNkZL-6" value="size = board.size&lt;div&gt;boxSize = sqrt(size)&lt;/div&gt;" style="whiteSpace=wrap;html=1;" parent="WIyWlLk6GJQsqaUBKTNV-1" vertex="1">
          <mxGeometry x="150" y="100" width="120" height="60" as="geometry" />
        </mxCell>
        <mxCell id="WVFGbX8OKdMeRJ4kNkZL-11" value="" style="endArrow=none;html=1;rounded=0;entryX=0.5;entryY=1;entryDx=0;entryDy=0;" parent="WIyWlLk6GJQsqaUBKTNV-1" target="WVFGbX8OKdMeRJ4kNkZL-8" edge="1">
          <mxGeometry width="50" height="50" relative="1" as="geometry">
            <mxPoint x="210" y="300" as="sourcePoint" />
            <mxPoint x="210" y="240" as="targetPoint" />
          </mxGeometry>
        </mxCell>
        <mxCell id="WVFGbX8OKdMeRJ4kNkZL-15" value="" style="edgeStyle=none;rounded=0;orthogonalLoop=1;jettySize=auto;html=1;" parent="WIyWlLk6GJQsqaUBKTNV-1" source="WVFGbX8OKdMeRJ4kNkZL-8" target="WVFGbX8OKdMeRJ4kNkZL-12" edge="1">
          <mxGeometry relative="1" as="geometry" />
        </mxCell>
        <mxCell id="WVFGbX8OKdMeRJ4kNkZL-21" value="" style="edgeStyle=none;rounded=0;orthogonalLoop=1;jettySize=auto;html=1;" parent="WIyWlLk6GJQsqaUBKTNV-1" source="WVFGbX8OKdMeRJ4kNkZL-8" target="WVFGbX8OKdMeRJ4kNkZL-20" edge="1">
          <mxGeometry relative="1" as="geometry" />
        </mxCell>
        <mxCell id="WVFGbX8OKdMeRJ4kNkZL-8" value="&lt;div&gt;isValidGroup(row)&lt;/div&gt;" style="rhombus;whiteSpace=wrap;html=1;" parent="WIyWlLk6GJQsqaUBKTNV-1" vertex="1">
          <mxGeometry x="140" y="260" width="140" height="130" as="geometry" />
        </mxCell>
        <mxCell id="WVFGbX8OKdMeRJ4kNkZL-16" value="" style="edgeStyle=none;rounded=0;orthogonalLoop=1;jettySize=auto;html=1;" parent="WIyWlLk6GJQsqaUBKTNV-1" source="WVFGbX8OKdMeRJ4kNkZL-12" target="WVFGbX8OKdMeRJ4kNkZL-13" edge="1">
          <mxGeometry relative="1" as="geometry" />
        </mxCell>
        <mxCell id="WVFGbX8OKdMeRJ4kNkZL-23" value="" style="edgeStyle=none;rounded=0;orthogonalLoop=1;jettySize=auto;html=1;" parent="WIyWlLk6GJQsqaUBKTNV-1" source="WVFGbX8OKdMeRJ4kNkZL-12" target="WVFGbX8OKdMeRJ4kNkZL-22" edge="1">
          <mxGeometry relative="1" as="geometry" />
        </mxCell>
        <mxCell id="WVFGbX8OKdMeRJ4kNkZL-12" value="&lt;div&gt;isValidGroup(column)&lt;/div&gt;" style="rhombus;whiteSpace=wrap;html=1;" parent="WIyWlLk6GJQsqaUBKTNV-1" vertex="1">
          <mxGeometry x="135" y="410" width="150" height="130" as="geometry" />
        </mxCell>
        <mxCell id="WVFGbX8OKdMeRJ4kNkZL-27" value="" style="edgeStyle=none;rounded=0;orthogonalLoop=1;jettySize=auto;html=1;" parent="WIyWlLk6GJQsqaUBKTNV-1" source="WVFGbX8OKdMeRJ4kNkZL-13" target="WVFGbX8OKdMeRJ4kNkZL-26" edge="1">
          <mxGeometry relative="1" as="geometry" />
        </mxCell>
        <mxCell id="WVFGbX8OKdMeRJ4kNkZL-42" value="" style="edgeStyle=none;rounded=0;orthogonalLoop=1;jettySize=auto;html=1;" parent="WIyWlLk6GJQsqaUBKTNV-1" source="WVFGbX8OKdMeRJ4kNkZL-13" target="WVFGbX8OKdMeRJ4kNkZL-41" edge="1">
          <mxGeometry relative="1" as="geometry" />
        </mxCell>
        <mxCell id="WVFGbX8OKdMeRJ4kNkZL-13" value="&lt;div&gt;isValidGroup(subGrid)&lt;/div&gt;" style="rhombus;whiteSpace=wrap;html=1;" parent="WIyWlLk6GJQsqaUBKTNV-1" vertex="1">
          <mxGeometry x="140" y="560" width="140" height="120" as="geometry" />
        </mxCell>
        <mxCell id="WVFGbX8OKdMeRJ4kNkZL-17" value="yes" style="text;html=1;align=center;verticalAlign=middle;whiteSpace=wrap;rounded=0;" parent="WIyWlLk6GJQsqaUBKTNV-1" vertex="1">
          <mxGeometry x="200" y="380" width="60" height="30" as="geometry" />
        </mxCell>
        <mxCell id="WVFGbX8OKdMeRJ4kNkZL-19" value="yes" style="text;html=1;align=center;verticalAlign=middle;whiteSpace=wrap;rounded=0;" parent="WIyWlLk6GJQsqaUBKTNV-1" vertex="1">
          <mxGeometry x="200" y="530" width="60" height="30" as="geometry" />
        </mxCell>
        <mxCell id="WVFGbX8OKdMeRJ4kNkZL-20" value="return false" style="whiteSpace=wrap;html=1;" parent="WIyWlLk6GJQsqaUBKTNV-1" vertex="1">
          <mxGeometry x="370" y="295" width="120" height="60" as="geometry" />
        </mxCell>
        <mxCell id="WVFGbX8OKdMeRJ4kNkZL-22" value="return false" style="whiteSpace=wrap;html=1;" parent="WIyWlLk6GJQsqaUBKTNV-1" vertex="1">
          <mxGeometry x="380" y="445" width="120" height="60" as="geometry" />
        </mxCell>
        <mxCell id="WVFGbX8OKdMeRJ4kNkZL-26" value="return false" style="whiteSpace=wrap;html=1;" parent="WIyWlLk6GJQsqaUBKTNV-1" vertex="1">
          <mxGeometry x="370" y="590" width="120" height="60" as="geometry" />
        </mxCell>
        <mxCell id="WVFGbX8OKdMeRJ4kNkZL-28" value="no" style="text;html=1;align=center;verticalAlign=middle;whiteSpace=wrap;rounded=0;" parent="WIyWlLk6GJQsqaUBKTNV-1" vertex="1">
          <mxGeometry x="290" y="295" width="60" height="30" as="geometry" />
        </mxCell>
        <mxCell id="WVFGbX8OKdMeRJ4kNkZL-29" value="no" style="text;html=1;align=center;verticalAlign=middle;whiteSpace=wrap;rounded=0;" parent="WIyWlLk6GJQsqaUBKTNV-1" vertex="1">
          <mxGeometry x="285" y="590" width="60" height="30" as="geometry" />
        </mxCell>
        <mxCell id="WVFGbX8OKdMeRJ4kNkZL-30" value="no" style="text;html=1;align=center;verticalAlign=middle;whiteSpace=wrap;rounded=0;" parent="WIyWlLk6GJQsqaUBKTNV-1" vertex="1">
          <mxGeometry x="290" y="445" width="60" height="30" as="geometry" />
        </mxCell>
        <mxCell id="WVFGbX8OKdMeRJ4kNkZL-33" value="end" style="ellipse;whiteSpace=wrap;html=1;" parent="WIyWlLk6GJQsqaUBKTNV-1" vertex="1">
          <mxGeometry x="155" y="790" width="110" height="60" as="geometry" />
        </mxCell>
        <mxCell id="WVFGbX8OKdMeRJ4kNkZL-40" value="" style="edgeStyle=none;rounded=0;orthogonalLoop=1;jettySize=auto;html=1;" parent="WIyWlLk6GJQsqaUBKTNV-1" source="WVFGbX8OKdMeRJ4kNkZL-37" target="WVFGbX8OKdMeRJ4kNkZL-8" edge="1">
          <mxGeometry relative="1" as="geometry" />
        </mxCell>
        <mxCell id="WVFGbX8OKdMeRJ4kNkZL-37" value="define isValidGroup() function" style="rounded=0;whiteSpace=wrap;html=1;" parent="WIyWlLk6GJQsqaUBKTNV-1" vertex="1">
          <mxGeometry x="150" y="180" width="120" height="60" as="geometry" />
        </mxCell>
        <mxCell id="WVFGbX8OKdMeRJ4kNkZL-43" value="" style="edgeStyle=none;rounded=0;orthogonalLoop=1;jettySize=auto;html=1;" parent="WIyWlLk6GJQsqaUBKTNV-1" source="WVFGbX8OKdMeRJ4kNkZL-41" target="WVFGbX8OKdMeRJ4kNkZL-33" edge="1">
          <mxGeometry relative="1" as="geometry" />
        </mxCell>
        <mxCell id="WVFGbX8OKdMeRJ4kNkZL-41" value="return true" style="whiteSpace=wrap;html=1;" parent="WIyWlLk6GJQsqaUBKTNV-1" vertex="1">
          <mxGeometry x="150" y="710" width="120" height="60" as="geometry" />
        </mxCell>
        <mxCell id="WVFGbX8OKdMeRJ4kNkZL-44" value="yes" style="text;html=1;align=center;verticalAlign=middle;whiteSpace=wrap;rounded=0;" parent="WIyWlLk6GJQsqaUBKTNV-1" vertex="1">
          <mxGeometry x="200" y="680" width="60" height="30" as="geometry" />
        </mxCell>
        <mxCell id="2qSWAf4yEXB-eWjeMM5K-0" value="" style="endArrow=none;html=1;rounded=0;" edge="1" parent="WIyWlLk6GJQsqaUBKTNV-1">
          <mxGeometry width="50" height="50" relative="1" as="geometry">
            <mxPoint x="100" y="394.33" as="sourcePoint" />
            <mxPoint x="210" y="394.33" as="targetPoint" />
          </mxGeometry>
        </mxCell>
        <mxCell id="2qSWAf4yEXB-eWjeMM5K-1" value="" style="endArrow=none;html=1;rounded=0;" edge="1" parent="WIyWlLk6GJQsqaUBKTNV-1">
          <mxGeometry width="50" height="50" relative="1" as="geometry">
            <mxPoint x="100" y="690" as="sourcePoint" />
            <mxPoint x="210" y="690" as="targetPoint" />
          </mxGeometry>
        </mxCell>
        <mxCell id="2qSWAf4yEXB-eWjeMM5K-2" value="" style="endArrow=none;html=1;rounded=0;" edge="1" parent="WIyWlLk6GJQsqaUBKTNV-1">
          <mxGeometry width="50" height="50" relative="1" as="geometry">
            <mxPoint x="100" y="540" as="sourcePoint" />
            <mxPoint x="210" y="540" as="targetPoint" />
          </mxGeometry>
        </mxCell>
        <mxCell id="2qSWAf4yEXB-eWjeMM5K-4" value="" style="endArrow=none;html=1;rounded=0;" edge="1" parent="WIyWlLk6GJQsqaUBKTNV-1">
          <mxGeometry width="50" height="50" relative="1" as="geometry">
            <mxPoint x="100" y="620" as="sourcePoint" />
            <mxPoint x="140" y="620" as="targetPoint" />
          </mxGeometry>
        </mxCell>
        <mxCell id="2qSWAf4yEXB-eWjeMM5K-6" value="" style="endArrow=none;html=1;rounded=0;" edge="1" parent="WIyWlLk6GJQsqaUBKTNV-1">
          <mxGeometry width="50" height="50" relative="1" as="geometry">
            <mxPoint x="100" y="690" as="sourcePoint" />
            <mxPoint x="100" y="620" as="targetPoint" />
          </mxGeometry>
        </mxCell>
        <mxCell id="2qSWAf4yEXB-eWjeMM5K-7" value="" style="endArrow=none;html=1;rounded=0;" edge="1" parent="WIyWlLk6GJQsqaUBKTNV-1">
          <mxGeometry width="50" height="50" relative="1" as="geometry">
            <mxPoint x="100" y="324.33" as="sourcePoint" />
            <mxPoint x="140" y="324.33" as="targetPoint" />
          </mxGeometry>
        </mxCell>
        <mxCell id="2qSWAf4yEXB-eWjeMM5K-8" value="" style="endArrow=none;html=1;rounded=0;" edge="1" parent="WIyWlLk6GJQsqaUBKTNV-1">
          <mxGeometry width="50" height="50" relative="1" as="geometry">
            <mxPoint x="95" y="473.67" as="sourcePoint" />
            <mxPoint x="135" y="473.67" as="targetPoint" />
          </mxGeometry>
        </mxCell>
        <mxCell id="2qSWAf4yEXB-eWjeMM5K-9" value="" style="endArrow=none;html=1;rounded=0;" edge="1" parent="WIyWlLk6GJQsqaUBKTNV-1">
          <mxGeometry width="50" height="50" relative="1" as="geometry">
            <mxPoint x="100" y="395" as="sourcePoint" />
            <mxPoint x="100" y="325" as="targetPoint" />
          </mxGeometry>
        </mxCell>
        <mxCell id="2qSWAf4yEXB-eWjeMM5K-10" value="" style="endArrow=none;html=1;rounded=0;" edge="1" parent="WIyWlLk6GJQsqaUBKTNV-1">
          <mxGeometry width="50" height="50" relative="1" as="geometry">
            <mxPoint x="100" y="540" as="sourcePoint" />
            <mxPoint x="100" y="470" as="targetPoint" />
          </mxGeometry>
        </mxCell>
      </root>
    </mxGraphModel>
  </diagram>
  <diagram id="oHFhjthTGVeP3cD-KrLw" name="IPv4 diagram">
    <mxGraphModel dx="1457" dy="788" grid="1" gridSize="10" guides="1" tooltips="1" connect="1" arrows="1" fold="1" page="1" pageScale="1" pageWidth="850" pageHeight="1100" math="0" shadow="0">
      <root>
        <mxCell id="0" />
        <mxCell id="1" parent="0" />
        <mxCell id="S-5rs2X0BtKWw0U-oja9-3" value="" style="edgeStyle=none;rounded=0;orthogonalLoop=1;jettySize=auto;html=1;" edge="1" parent="1" source="S-5rs2X0BtKWw0U-oja9-1" target="S-5rs2X0BtKWw0U-oja9-2">
          <mxGeometry relative="1" as="geometry" />
        </mxCell>
        <mxCell id="S-5rs2X0BtKWw0U-oja9-1" value="start" style="ellipse;whiteSpace=wrap;html=1;" vertex="1" parent="1">
          <mxGeometry x="180" y="10" width="100" height="50" as="geometry" />
        </mxCell>
        <mxCell id="AF_sRmBem9vMi__EUsd--2" value="" style="edgeStyle=none;rounded=0;orthogonalLoop=1;jettySize=auto;html=1;" edge="1" parent="1" source="S-5rs2X0BtKWw0U-oja9-2" target="AF_sRmBem9vMi__EUsd--1">
          <mxGeometry relative="1" as="geometry" />
        </mxCell>
        <mxCell id="AF_sRmBem9vMi__EUsd--6" value="" style="edgeStyle=none;rounded=0;orthogonalLoop=1;jettySize=auto;html=1;" edge="1" parent="1" source="S-5rs2X0BtKWw0U-oja9-2">
          <mxGeometry relative="1" as="geometry">
            <mxPoint x="230" y="240" as="targetPoint" />
          </mxGeometry>
        </mxCell>
        <mxCell id="S-5rs2X0BtKWw0U-oja9-2" value="is address null or blank or contain spaces" style="rhombus;whiteSpace=wrap;html=1;" vertex="1" parent="1">
          <mxGeometry x="165" y="80" width="130" height="130" as="geometry" />
        </mxCell>
        <mxCell id="AF_sRmBem9vMi__EUsd--1" value="return false&amp;nbsp;" style="whiteSpace=wrap;html=1;" vertex="1" parent="1">
          <mxGeometry x="380" y="115" width="120" height="60" as="geometry" />
        </mxCell>
        <mxCell id="AF_sRmBem9vMi__EUsd--3" value="yes" style="text;html=1;align=center;verticalAlign=middle;whiteSpace=wrap;rounded=0;" vertex="1" parent="1">
          <mxGeometry x="300" y="120" width="60" height="30" as="geometry" />
        </mxCell>
        <mxCell id="AF_sRmBem9vMi__EUsd--11" value="" style="edgeStyle=none;rounded=0;orthogonalLoop=1;jettySize=auto;html=1;" edge="1" parent="1" source="AF_sRmBem9vMi__EUsd--5" target="AF_sRmBem9vMi__EUsd--10">
          <mxGeometry relative="1" as="geometry" />
        </mxCell>
        <mxCell id="qn0yvYZL39nes52km4Q_-2" value="" style="edgeStyle=none;rounded=0;orthogonalLoop=1;jettySize=auto;html=1;" edge="1" parent="1" source="AF_sRmBem9vMi__EUsd--5" target="qn0yvYZL39nes52km4Q_-1">
          <mxGeometry relative="1" as="geometry" />
        </mxCell>
        <mxCell id="AF_sRmBem9vMi__EUsd--5" value="does address has 4 segments?" style="rhombus;whiteSpace=wrap;html=1;" vertex="1" parent="1">
          <mxGeometry x="165" y="320" width="130" height="130" as="geometry" />
        </mxCell>
        <mxCell id="AF_sRmBem9vMi__EUsd--7" value="no" style="text;html=1;align=center;verticalAlign=middle;whiteSpace=wrap;rounded=0;" vertex="1" parent="1">
          <mxGeometry x="220" y="210" width="60" height="30" as="geometry" />
        </mxCell>
        <mxCell id="AF_sRmBem9vMi__EUsd--9" value="" style="edgeStyle=none;rounded=0;orthogonalLoop=1;jettySize=auto;html=1;" edge="1" parent="1" source="AF_sRmBem9vMi__EUsd--8" target="AF_sRmBem9vMi__EUsd--5">
          <mxGeometry relative="1" as="geometry" />
        </mxCell>
        <mxCell id="AF_sRmBem9vMi__EUsd--8" value="split address into segments using&quot;.&quot;" style="rounded=0;whiteSpace=wrap;html=1;" vertex="1" parent="1">
          <mxGeometry x="170" y="240" width="120" height="60" as="geometry" />
        </mxCell>
        <mxCell id="AF_sRmBem9vMi__EUsd--10" value="return false&amp;nbsp;" style="whiteSpace=wrap;html=1;" vertex="1" parent="1">
          <mxGeometry x="380" y="355" width="120" height="60" as="geometry" />
        </mxCell>
        <mxCell id="AF_sRmBem9vMi__EUsd--12" value="no" style="text;html=1;align=center;verticalAlign=middle;whiteSpace=wrap;rounded=0;" vertex="1" parent="1">
          <mxGeometry x="300" y="355" width="60" height="30" as="geometry" />
        </mxCell>
        <mxCell id="AF_sRmBem9vMi__EUsd--13" value="yes" style="text;html=1;align=center;verticalAlign=middle;whiteSpace=wrap;rounded=0;" vertex="1" parent="1">
          <mxGeometry x="220" y="440" width="60" height="30" as="geometry" />
        </mxCell>
        <mxCell id="qn0yvYZL39nes52km4Q_-4" value="" style="edgeStyle=none;rounded=0;orthogonalLoop=1;jettySize=auto;html=1;" edge="1" parent="1" source="qn0yvYZL39nes52km4Q_-1" target="qn0yvYZL39nes52km4Q_-3">
          <mxGeometry relative="1" as="geometry" />
        </mxCell>
        <mxCell id="qn0yvYZL39nes52km4Q_-7" value="" style="edgeStyle=none;rounded=0;orthogonalLoop=1;jettySize=auto;html=1;" edge="1" parent="1" source="qn0yvYZL39nes52km4Q_-1" target="qn0yvYZL39nes52km4Q_-6">
          <mxGeometry relative="1" as="geometry" />
        </mxCell>
        <mxCell id="qn0yvYZL39nes52km4Q_-1" value="is segment empty or contain non digit character?" style="rhombus;whiteSpace=wrap;html=1;" vertex="1" parent="1">
          <mxGeometry x="165" y="480" width="130" height="130" as="geometry" />
        </mxCell>
        <mxCell id="qn0yvYZL39nes52km4Q_-3" value="return false&amp;nbsp;" style="whiteSpace=wrap;html=1;" vertex="1" parent="1">
          <mxGeometry x="365" y="515" width="120" height="60" as="geometry" />
        </mxCell>
        <mxCell id="qn0yvYZL39nes52km4Q_-5" value="yes" style="text;html=1;align=center;verticalAlign=middle;whiteSpace=wrap;rounded=0;" vertex="1" parent="1">
          <mxGeometry x="295" y="515" width="60" height="30" as="geometry" />
        </mxCell>
        <mxCell id="qn0yvYZL39nes52km4Q_-13" value="" style="edgeStyle=none;rounded=0;orthogonalLoop=1;jettySize=auto;html=1;" edge="1" parent="1" source="qn0yvYZL39nes52km4Q_-6" target="qn0yvYZL39nes52km4Q_-12">
          <mxGeometry relative="1" as="geometry" />
        </mxCell>
        <mxCell id="qn0yvYZL39nes52km4Q_-16" value="" style="edgeStyle=none;rounded=0;orthogonalLoop=1;jettySize=auto;html=1;" edge="1" parent="1" source="qn0yvYZL39nes52km4Q_-6" target="qn0yvYZL39nes52km4Q_-8">
          <mxGeometry relative="1" as="geometry" />
        </mxCell>
        <mxCell id="qn0yvYZL39nes52km4Q_-6" value="is segment have leading 0?" style="rhombus;whiteSpace=wrap;html=1;" vertex="1" parent="1">
          <mxGeometry x="165" y="640" width="130" height="130" as="geometry" />
        </mxCell>
        <mxCell id="qn0yvYZL39nes52km4Q_-8" value="return false&amp;nbsp;" style="whiteSpace=wrap;html=1;" vertex="1" parent="1">
          <mxGeometry x="360" y="675" width="120" height="60" as="geometry" />
        </mxCell>
        <mxCell id="qn0yvYZL39nes52km4Q_-11" value="no" style="text;html=1;align=center;verticalAlign=middle;whiteSpace=wrap;rounded=0;" vertex="1" parent="1">
          <mxGeometry x="220" y="610" width="60" height="30" as="geometry" />
        </mxCell>
        <mxCell id="qn0yvYZL39nes52km4Q_-19" value="" style="edgeStyle=none;rounded=0;orthogonalLoop=1;jettySize=auto;html=1;" edge="1" parent="1" source="qn0yvYZL39nes52km4Q_-12" target="qn0yvYZL39nes52km4Q_-18">
          <mxGeometry relative="1" as="geometry" />
        </mxCell>
        <mxCell id="qn0yvYZL39nes52km4Q_-22" value="" style="edgeStyle=none;rounded=0;orthogonalLoop=1;jettySize=auto;html=1;" edge="1" parent="1" source="qn0yvYZL39nes52km4Q_-12" target="qn0yvYZL39nes52km4Q_-21">
          <mxGeometry relative="1" as="geometry" />
        </mxCell>
        <mxCell id="qn0yvYZL39nes52km4Q_-12" value="is segment converted&lt;div&gt;&amp;nbsp;to int?&lt;/div&gt;" style="rhombus;whiteSpace=wrap;html=1;" vertex="1" parent="1">
          <mxGeometry x="165" y="800" width="130" height="130" as="geometry" />
        </mxCell>
        <mxCell id="qn0yvYZL39nes52km4Q_-15" value="no" style="text;html=1;align=center;verticalAlign=middle;whiteSpace=wrap;rounded=0;" vertex="1" parent="1">
          <mxGeometry x="210" y="770" width="60" height="30" as="geometry" />
        </mxCell>
        <mxCell id="qn0yvYZL39nes52km4Q_-17" value="yes" style="text;html=1;align=center;verticalAlign=middle;whiteSpace=wrap;rounded=0;" vertex="1" parent="1">
          <mxGeometry x="290" y="680" width="60" height="30" as="geometry" />
        </mxCell>
        <mxCell id="qn0yvYZL39nes52km4Q_-18" value="return false&amp;nbsp;" style="whiteSpace=wrap;html=1;" vertex="1" parent="1">
          <mxGeometry x="350" y="835" width="120" height="60" as="geometry" />
        </mxCell>
        <mxCell id="qn0yvYZL39nes52km4Q_-20" value="no" style="text;html=1;align=center;verticalAlign=middle;whiteSpace=wrap;rounded=0;" vertex="1" parent="1">
          <mxGeometry x="290" y="840" width="60" height="30" as="geometry" />
        </mxCell>
        <mxCell id="qn0yvYZL39nes52km4Q_-25" value="" style="edgeStyle=none;rounded=0;orthogonalLoop=1;jettySize=auto;html=1;" edge="1" parent="1" source="qn0yvYZL39nes52km4Q_-21" target="qn0yvYZL39nes52km4Q_-24">
          <mxGeometry relative="1" as="geometry" />
        </mxCell>
        <mxCell id="qn0yvYZL39nes52km4Q_-49" value="" style="edgeStyle=orthogonalEdgeStyle;rounded=0;orthogonalLoop=1;jettySize=auto;html=1;" edge="1" parent="1" source="qn0yvYZL39nes52km4Q_-21">
          <mxGeometry relative="1" as="geometry">
            <mxPoint x="230" y="1150" as="targetPoint" />
          </mxGeometry>
        </mxCell>
        <mxCell id="qn0yvYZL39nes52km4Q_-21" value="is integer between 0 and 255?" style="rhombus;whiteSpace=wrap;html=1;" vertex="1" parent="1">
          <mxGeometry x="165" y="980" width="130" height="130" as="geometry" />
        </mxCell>
        <mxCell id="qn0yvYZL39nes52km4Q_-23" value="yes" style="text;html=1;align=center;verticalAlign=middle;whiteSpace=wrap;rounded=0;" vertex="1" parent="1">
          <mxGeometry x="220" y="940" width="60" height="30" as="geometry" />
        </mxCell>
        <mxCell id="qn0yvYZL39nes52km4Q_-24" value="return false&amp;nbsp;" style="whiteSpace=wrap;html=1;" vertex="1" parent="1">
          <mxGeometry x="380" y="1015" width="120" height="60" as="geometry" />
        </mxCell>
        <mxCell id="qn0yvYZL39nes52km4Q_-26" value="no" style="text;html=1;align=center;verticalAlign=middle;whiteSpace=wrap;rounded=0;" vertex="1" parent="1">
          <mxGeometry x="280" y="1020" width="60" height="30" as="geometry" />
        </mxCell>
        <mxCell id="qn0yvYZL39nes52km4Q_-40" value="" style="endArrow=none;html=1;rounded=0;exitX=0;exitY=1;exitDx=0;exitDy=0;" edge="1" parent="1" source="qn0yvYZL39nes52km4Q_-44">
          <mxGeometry width="50" height="50" relative="1" as="geometry">
            <mxPoint x="50" y="1044.17" as="sourcePoint" />
            <mxPoint x="170" y="1044.17" as="targetPoint" />
          </mxGeometry>
        </mxCell>
        <mxCell id="qn0yvYZL39nes52km4Q_-41" value="" style="endArrow=none;html=1;rounded=0;" edge="1" parent="1">
          <mxGeometry width="50" height="50" relative="1" as="geometry">
            <mxPoint x="80" y="1050" as="sourcePoint" />
            <mxPoint x="80" y="470" as="targetPoint" />
          </mxGeometry>
        </mxCell>
        <mxCell id="qn0yvYZL39nes52km4Q_-42" value="" style="endArrow=none;html=1;rounded=0;entryX=0;entryY=0.5;entryDx=0;entryDy=0;" edge="1" parent="1">
          <mxGeometry width="50" height="50" relative="1" as="geometry">
            <mxPoint x="80" y="468" as="sourcePoint" />
            <mxPoint x="230" y="468.33" as="targetPoint" />
          </mxGeometry>
        </mxCell>
        <mxCell id="qn0yvYZL39nes52km4Q_-44" value="yes" style="text;html=1;align=center;verticalAlign=middle;whiteSpace=wrap;rounded=0;" vertex="1" parent="1">
          <mxGeometry x="80" y="1015" width="60" height="30" as="geometry" />
        </mxCell>
        <mxCell id="qn0yvYZL39nes52km4Q_-45" value="return true" style="whiteSpace=wrap;html=1;" vertex="1" parent="1">
          <mxGeometry x="170" y="1250" width="120" height="60" as="geometry" />
        </mxCell>
        <mxCell id="qn0yvYZL39nes52km4Q_-51" value="" style="edgeStyle=orthogonalEdgeStyle;rounded=0;orthogonalLoop=1;jettySize=auto;html=1;" edge="1" parent="1" source="qn0yvYZL39nes52km4Q_-48" target="qn0yvYZL39nes52km4Q_-45">
          <mxGeometry relative="1" as="geometry" />
        </mxCell>
        <mxCell id="qn0yvYZL39nes52km4Q_-48" value="end" style="ellipse;whiteSpace=wrap;html=1;" vertex="1" parent="1">
          <mxGeometry x="170" y="1150" width="120" height="60" as="geometry" />
        </mxCell>
        <mxCell id="qn0yvYZL39nes52km4Q_-52" value="yes" style="text;html=1;align=center;verticalAlign=middle;whiteSpace=wrap;rounded=0;" vertex="1" parent="1">
          <mxGeometry x="220" y="1110" width="60" height="30" as="geometry" />
        </mxCell>
      </root>
    </mxGraphModel>
  </diagram>
</mxfile>
